<mxfile host="app.diagrams.net" agent="Mozilla/5.0 (Windows NT 10.0; Win64; x64) AppleWebKit/537.36 (KHTML, like Gecko) Chrome/127.0.0.0 Safari/537.36" version="24.7.6">
  <diagram name="Page-1" id="7V88Ae-5QzzQyA0Sw2lg">
    <mxGraphModel dx="1780" dy="1404" grid="1" gridSize="10" guides="1" tooltips="1" connect="1" arrows="1" fold="1" page="1" pageScale="1" pageWidth="827" pageHeight="1169" math="0" shadow="0">
      <root>
        <mxCell id="0" />
        <mxCell id="1" parent="0" />
        <mxCell id="YSwagOfg2J_Akl-VQgVr-1" value=" " style="rounded=0;whiteSpace=wrap;html=1;fillColor=#FFFFFF;" parent="1" vertex="1">
          <mxGeometry x="1120" y="150" width="920" height="1080" as="geometry" />
        </mxCell>
        <mxCell id="YSwagOfg2J_Akl-VQgVr-2" style="rounded=0;orthogonalLoop=1;jettySize=auto;html=1;entryX=0.5;entryY=0;entryDx=0;entryDy=0;" parent="1" source="YSwagOfg2J_Akl-VQgVr-6" target="YSwagOfg2J_Akl-VQgVr-45" edge="1">
          <mxGeometry relative="1" as="geometry" />
        </mxCell>
        <mxCell id="YSwagOfg2J_Akl-VQgVr-3" style="rounded=0;orthogonalLoop=1;jettySize=auto;html=1;" parent="1" source="YSwagOfg2J_Akl-VQgVr-6" target="YSwagOfg2J_Akl-VQgVr-46" edge="1">
          <mxGeometry relative="1" as="geometry" />
        </mxCell>
        <mxCell id="YSwagOfg2J_Akl-VQgVr-4" style="rounded=0;orthogonalLoop=1;jettySize=auto;html=1;" parent="1" source="YSwagOfg2J_Akl-VQgVr-6" target="YSwagOfg2J_Akl-VQgVr-48" edge="1">
          <mxGeometry relative="1" as="geometry" />
        </mxCell>
        <mxCell id="YSwagOfg2J_Akl-VQgVr-5" style="rounded=0;orthogonalLoop=1;jettySize=auto;html=1;entryX=0;entryY=0;entryDx=0;entryDy=0;" parent="1" source="YSwagOfg2J_Akl-VQgVr-6" target="YSwagOfg2J_Akl-VQgVr-47" edge="1">
          <mxGeometry relative="1" as="geometry" />
        </mxCell>
        <mxCell id="YSwagOfg2J_Akl-VQgVr-6" value="Visiteur" style="shape=umlActor;verticalLabelPosition=bottom;verticalAlign=top;html=1;outlineConnect=0;fillColor=#08FF29;" parent="1" vertex="1">
          <mxGeometry x="1361" y="50" width="30" height="60" as="geometry" />
        </mxCell>
        <mxCell id="YSwagOfg2J_Akl-VQgVr-8" style="rounded=0;orthogonalLoop=1;jettySize=auto;html=1;entryX=0;entryY=0.5;entryDx=0;entryDy=0;" parent="1" source="YSwagOfg2J_Akl-VQgVr-10" target="YSwagOfg2J_Akl-VQgVr-38" edge="1">
          <mxGeometry relative="1" as="geometry" />
        </mxCell>
        <mxCell id="YSwagOfg2J_Akl-VQgVr-9" style="rounded=0;orthogonalLoop=1;jettySize=auto;html=1;" parent="1" source="YSwagOfg2J_Akl-VQgVr-10" target="YSwagOfg2J_Akl-VQgVr-40" edge="1">
          <mxGeometry relative="1" as="geometry" />
        </mxCell>
        <mxCell id="YSwagOfg2J_Akl-VQgVr-10" value="Utilisateur" style="shape=umlActor;verticalLabelPosition=bottom;verticalAlign=top;html=1;outlineConnect=0;fillColor=#FF0303;" parent="1" vertex="1">
          <mxGeometry x="1060" y="550" width="30" height="60" as="geometry" />
        </mxCell>
        <mxCell id="YSwagOfg2J_Akl-VQgVr-12" style="rounded=0;orthogonalLoop=1;jettySize=auto;html=1;exitX=0;exitY=0.3333333333333333;exitDx=0;exitDy=0;exitPerimeter=0;" parent="1" source="YSwagOfg2J_Akl-VQgVr-16" target="YSwagOfg2J_Akl-VQgVr-25" edge="1">
          <mxGeometry relative="1" as="geometry" />
        </mxCell>
        <mxCell id="YSwagOfg2J_Akl-VQgVr-13" style="rounded=0;orthogonalLoop=1;jettySize=auto;html=1;entryX=1;entryY=0.5;entryDx=0;entryDy=0;exitX=0;exitY=0.3333333333333333;exitDx=0;exitDy=0;exitPerimeter=0;" parent="1" source="YSwagOfg2J_Akl-VQgVr-16" target="YSwagOfg2J_Akl-VQgVr-24" edge="1">
          <mxGeometry relative="1" as="geometry" />
        </mxCell>
        <mxCell id="YSwagOfg2J_Akl-VQgVr-14" style="rounded=0;orthogonalLoop=1;jettySize=auto;html=1;entryX=1;entryY=0.5;entryDx=0;entryDy=0;exitX=0;exitY=0.3333333333333333;exitDx=0;exitDy=0;exitPerimeter=0;" parent="1" source="YSwagOfg2J_Akl-VQgVr-16" target="YSwagOfg2J_Akl-VQgVr-23" edge="1">
          <mxGeometry relative="1" as="geometry">
            <mxPoint x="1900" y="580" as="sourcePoint" />
          </mxGeometry>
        </mxCell>
        <mxCell id="YSwagOfg2J_Akl-VQgVr-15" style="rounded=0;orthogonalLoop=1;jettySize=auto;html=1;entryX=1;entryY=0.5;entryDx=0;entryDy=0;exitX=0;exitY=0.3333333333333333;exitDx=0;exitDy=0;exitPerimeter=0;" parent="1" source="YSwagOfg2J_Akl-VQgVr-16" target="YSwagOfg2J_Akl-VQgVr-22" edge="1">
          <mxGeometry relative="1" as="geometry">
            <mxPoint x="1940" y="670" as="sourcePoint" />
          </mxGeometry>
        </mxCell>
        <mxCell id="k9i2mhjnvbRGgx2S68wg-8" style="rounded=0;orthogonalLoop=1;jettySize=auto;html=1;entryX=1;entryY=0.5;entryDx=0;entryDy=0;" parent="1" source="YSwagOfg2J_Akl-VQgVr-16" target="k9i2mhjnvbRGgx2S68wg-7" edge="1">
          <mxGeometry relative="1" as="geometry" />
        </mxCell>
        <mxCell id="YSwagOfg2J_Akl-VQgVr-16" value="Administrateur" style="shape=umlActor;verticalLabelPosition=bottom;verticalAlign=top;html=1;outlineConnect=0;fillColor=#D49CFF;" parent="1" vertex="1">
          <mxGeometry x="2100" y="870" width="52.5" height="105" as="geometry" />
        </mxCell>
        <mxCell id="YSwagOfg2J_Akl-VQgVr-18" style="rounded=0;orthogonalLoop=1;jettySize=auto;html=1;entryX=1;entryY=0.5;entryDx=0;entryDy=0;" parent="1" source="YSwagOfg2J_Akl-VQgVr-20" target="YSwagOfg2J_Akl-VQgVr-31" edge="1">
          <mxGeometry relative="1" as="geometry" />
        </mxCell>
        <mxCell id="YSwagOfg2J_Akl-VQgVr-19" style="rounded=0;orthogonalLoop=1;jettySize=auto;html=1;entryX=0.5;entryY=1;entryDx=0;entryDy=0;" parent="1" source="YSwagOfg2J_Akl-VQgVr-20" target="YSwagOfg2J_Akl-VQgVr-30" edge="1">
          <mxGeometry relative="1" as="geometry" />
        </mxCell>
        <mxCell id="k9i2mhjnvbRGgx2S68wg-18" style="edgeStyle=orthogonalEdgeStyle;rounded=0;orthogonalLoop=1;jettySize=auto;html=1;" parent="1" source="YSwagOfg2J_Akl-VQgVr-20" target="YSwagOfg2J_Akl-VQgVr-10" edge="1">
          <mxGeometry relative="1" as="geometry">
            <Array as="points">
              <mxPoint x="1075" y="1280" />
            </Array>
          </mxGeometry>
        </mxCell>
        <mxCell id="YSwagOfg2J_Akl-VQgVr-20" value="Employé" style="shape=umlActor;verticalLabelPosition=bottom;verticalAlign=top;html=1;outlineConnect=0;fillColor=#FFF81F;" parent="1" vertex="1">
          <mxGeometry x="1624" y="1260" width="30" height="60" as="geometry" />
        </mxCell>
        <mxCell id="k9i2mhjnvbRGgx2S68wg-20" style="rounded=0;orthogonalLoop=1;jettySize=auto;html=1;exitX=1;exitY=0.5;exitDx=0;exitDy=0;entryX=0;entryY=0.5;entryDx=0;entryDy=0;dashed=1;" parent="1" source="YSwagOfg2J_Akl-VQgVr-21" target="k9i2mhjnvbRGgx2S68wg-7" edge="1">
          <mxGeometry relative="1" as="geometry" />
        </mxCell>
        <mxCell id="k9i2mhjnvbRGgx2S68wg-21" value="Included" style="edgeLabel;html=1;align=center;verticalAlign=middle;resizable=0;points=[];" parent="k9i2mhjnvbRGgx2S68wg-20" vertex="1" connectable="0">
          <mxGeometry x="-0.0145" y="2" relative="1" as="geometry">
            <mxPoint as="offset" />
          </mxGeometry>
        </mxCell>
        <mxCell id="YSwagOfg2J_Akl-VQgVr-21" value="&lt;font style=&quot;font-size: 18px;&quot;&gt;Connection&lt;/font&gt;" style="ellipse;whiteSpace=wrap;html=1;fillColor=#FFFFFF;" parent="1" vertex="1">
          <mxGeometry x="1520" y="593.33" width="120" height="80" as="geometry" />
        </mxCell>
        <mxCell id="YSwagOfg2J_Akl-VQgVr-22" value="&lt;font style=&quot;font-size: 18px;&quot;&gt;Création Jeux&lt;/font&gt;" style="ellipse;whiteSpace=wrap;html=1;fillColor=#D49CFF;" parent="1" vertex="1">
          <mxGeometry x="1880" y="1100" width="120" height="80" as="geometry" />
        </mxCell>
        <mxCell id="YSwagOfg2J_Akl-VQgVr-23" value="&lt;font style=&quot;font-size: 18px;&quot;&gt;Gestion stocks&lt;/font&gt;" style="ellipse;whiteSpace=wrap;html=1;fillColor=#D49CFF;" parent="1" vertex="1">
          <mxGeometry x="1880" y="1000" width="120" height="80" as="geometry" />
        </mxCell>
        <mxCell id="YSwagOfg2J_Akl-VQgVr-24" value="&lt;font style=&quot;font-size: 18px;&quot;&gt;Récap ventes&lt;/font&gt;" style="ellipse;whiteSpace=wrap;html=1;fillColor=#D49CFF;" parent="1" vertex="1">
          <mxGeometry x="1880" y="890" width="120" height="80" as="geometry" />
        </mxCell>
        <mxCell id="YSwagOfg2J_Akl-VQgVr-25" value="&lt;font style=&quot;font-size: 18px;&quot;&gt;Créer employé&lt;/font&gt;" style="ellipse;whiteSpace=wrap;html=1;fillColor=#D49CFF;" parent="1" vertex="1">
          <mxGeometry x="1880" y="780" width="120" height="80" as="geometry" />
        </mxCell>
        <mxCell id="YSwagOfg2J_Akl-VQgVr-26" value="Included" style="endArrow=none;dashed=1;html=1;rounded=0;entryX=1;entryY=0.5;entryDx=0;entryDy=0;exitX=0;exitY=0.5;exitDx=0;exitDy=0;startArrow=classic;startFill=1;" parent="1" source="YSwagOfg2J_Akl-VQgVr-25" target="YSwagOfg2J_Akl-VQgVr-21" edge="1">
          <mxGeometry width="50" height="50" relative="1" as="geometry">
            <mxPoint x="1150" y="640" as="sourcePoint" />
            <mxPoint x="1100" y="690" as="targetPoint" />
          </mxGeometry>
        </mxCell>
        <mxCell id="YSwagOfg2J_Akl-VQgVr-27" value="Included" style="endArrow=none;dashed=1;html=1;rounded=0;entryX=1;entryY=0.5;entryDx=0;entryDy=0;exitX=0;exitY=0.5;exitDx=0;exitDy=0;startArrow=classic;startFill=1;" parent="1" source="YSwagOfg2J_Akl-VQgVr-24" target="YSwagOfg2J_Akl-VQgVr-21" edge="1">
          <mxGeometry width="50" height="50" relative="1" as="geometry">
            <mxPoint x="1670" y="705" as="sourcePoint" />
            <mxPoint x="1550" y="660" as="targetPoint" />
          </mxGeometry>
        </mxCell>
        <mxCell id="YSwagOfg2J_Akl-VQgVr-28" value="&lt;span style=&quot;color: rgb(0, 0, 0); font-family: Helvetica; font-size: 11px; font-style: normal; font-variant-ligatures: normal; font-variant-caps: normal; font-weight: 400; letter-spacing: normal; orphans: 2; text-align: center; text-indent: 0px; text-transform: none; widows: 2; word-spacing: 0px; -webkit-text-stroke-width: 0px; white-space: nowrap; background-color: rgb(255, 255, 255); text-decoration-thickness: initial; text-decoration-style: initial; text-decoration-color: initial; display: inline !important; float: none;&quot;&gt;Included&lt;/span&gt;" style="endArrow=none;dashed=1;html=1;rounded=0;entryX=1;entryY=0.5;entryDx=0;entryDy=0;exitX=0;exitY=0.5;exitDx=0;exitDy=0;startArrow=classic;startFill=1;" parent="1" source="YSwagOfg2J_Akl-VQgVr-23" target="YSwagOfg2J_Akl-VQgVr-21" edge="1">
          <mxGeometry width="50" height="50" relative="1" as="geometry">
            <mxPoint x="1700" y="815" as="sourcePoint" />
            <mxPoint x="1590" y="580" as="targetPoint" />
          </mxGeometry>
        </mxCell>
        <mxCell id="YSwagOfg2J_Akl-VQgVr-29" value="&lt;span style=&quot;color: rgb(0, 0, 0); font-family: Helvetica; font-size: 11px; font-style: normal; font-variant-ligatures: normal; font-variant-caps: normal; font-weight: 400; letter-spacing: normal; orphans: 2; text-align: center; text-indent: 0px; text-transform: none; widows: 2; word-spacing: 0px; -webkit-text-stroke-width: 0px; white-space: nowrap; background-color: rgb(255, 255, 255); text-decoration-thickness: initial; text-decoration-style: initial; text-decoration-color: initial; display: inline !important; float: none;&quot;&gt;Included&lt;/span&gt;" style="endArrow=none;dashed=1;html=1;rounded=0;entryX=0.999;entryY=0.607;entryDx=0;entryDy=0;exitX=0;exitY=0.5;exitDx=0;exitDy=0;startArrow=classic;startFill=1;entryPerimeter=0;" parent="1" source="YSwagOfg2J_Akl-VQgVr-22" target="YSwagOfg2J_Akl-VQgVr-21" edge="1">
          <mxGeometry width="50" height="50" relative="1" as="geometry">
            <mxPoint x="1680" y="910" as="sourcePoint" />
            <mxPoint x="1560" y="670" as="targetPoint" />
          </mxGeometry>
        </mxCell>
        <mxCell id="YSwagOfg2J_Akl-VQgVr-30" value="&lt;font style=&quot;font-size: 18px;&quot;&gt;Affichage des ventes&lt;/font&gt;" style="ellipse;whiteSpace=wrap;html=1;fillColor=#FFF81F;" parent="1" vertex="1">
          <mxGeometry x="1560" y="1020" width="120" height="80" as="geometry" />
        </mxCell>
        <mxCell id="YSwagOfg2J_Akl-VQgVr-31" value="&lt;span style=&quot;font-size: 18px;&quot;&gt;Valider/Livrer commande de son magasin&lt;/span&gt;" style="ellipse;whiteSpace=wrap;html=1;fillColor=#FFF81F;" parent="1" vertex="1">
          <mxGeometry x="1400" y="1090" width="170" height="100" as="geometry" />
        </mxCell>
        <mxCell id="YSwagOfg2J_Akl-VQgVr-32" value="&lt;span style=&quot;color: rgb(0, 0, 0); font-family: Helvetica; font-size: 11px; font-style: normal; font-variant-ligatures: normal; font-variant-caps: normal; font-weight: 400; letter-spacing: normal; orphans: 2; text-align: center; text-indent: 0px; text-transform: none; widows: 2; word-spacing: 0px; -webkit-text-stroke-width: 0px; white-space: nowrap; background-color: rgb(255, 255, 255); text-decoration-thickness: initial; text-decoration-style: initial; text-decoration-color: initial; display: inline !important; float: none;&quot;&gt;Included&lt;/span&gt;" style="endArrow=none;dashed=1;html=1;rounded=0;entryX=0.5;entryY=1;entryDx=0;entryDy=0;exitX=0.5;exitY=0;exitDx=0;exitDy=0;startArrow=classic;startFill=1;" parent="1" source="YSwagOfg2J_Akl-VQgVr-30" target="YSwagOfg2J_Akl-VQgVr-21" edge="1">
          <mxGeometry width="50" height="50" relative="1" as="geometry">
            <mxPoint x="1560.12" y="936.44" as="sourcePoint" />
            <mxPoint x="1440.12" y="600.44" as="targetPoint" />
          </mxGeometry>
        </mxCell>
        <mxCell id="YSwagOfg2J_Akl-VQgVr-33" value="" style="endArrow=none;html=1;rounded=0;entryX=0.5;entryY=1;entryDx=0;entryDy=0;exitX=0.5;exitY=0;exitDx=0;exitDy=0;dashed=1;startArrow=classic;startFill=1;" parent="1" source="YSwagOfg2J_Akl-VQgVr-31" target="YSwagOfg2J_Akl-VQgVr-21" edge="1">
          <mxGeometry width="50" height="50" relative="1" as="geometry">
            <mxPoint x="1440" y="855" as="sourcePoint" />
            <mxPoint x="1470" y="590" as="targetPoint" />
          </mxGeometry>
        </mxCell>
        <mxCell id="YSwagOfg2J_Akl-VQgVr-34" value="Included" style="edgeLabel;html=1;align=center;verticalAlign=middle;resizable=0;points=[];" parent="YSwagOfg2J_Akl-VQgVr-33" vertex="1" connectable="0">
          <mxGeometry x="-0.1141" y="-2" relative="1" as="geometry">
            <mxPoint as="offset" />
          </mxGeometry>
        </mxCell>
        <mxCell id="YSwagOfg2J_Akl-VQgVr-35" value="&lt;font style=&quot;font-size: 18px;&quot;&gt;Filtrer affichage des ventes&lt;/font&gt;" style="ellipse;whiteSpace=wrap;html=1;fillColor=#FFF81F;" parent="1" vertex="1">
          <mxGeometry x="1720" y="1090" width="120" height="80" as="geometry" />
        </mxCell>
        <mxCell id="YSwagOfg2J_Akl-VQgVr-36" value="" style="endArrow=none;dashed=1;html=1;rounded=0;entryX=0.984;entryY=0.563;entryDx=0;entryDy=0;exitX=0;exitY=0.5;exitDx=0;exitDy=0;startArrow=classic;startFill=1;entryPerimeter=0;" parent="1" source="YSwagOfg2J_Akl-VQgVr-35" target="YSwagOfg2J_Akl-VQgVr-30" edge="1">
          <mxGeometry width="50" height="50" relative="1" as="geometry">
            <mxPoint x="1320" y="740" as="sourcePoint" />
            <mxPoint x="1270" y="790" as="targetPoint" />
          </mxGeometry>
        </mxCell>
        <mxCell id="YSwagOfg2J_Akl-VQgVr-37" value="Extend" style="edgeLabel;html=1;align=center;verticalAlign=middle;resizable=0;points=[];" parent="YSwagOfg2J_Akl-VQgVr-36" vertex="1" connectable="0">
          <mxGeometry x="-0.0041" relative="1" as="geometry">
            <mxPoint as="offset" />
          </mxGeometry>
        </mxCell>
        <mxCell id="k9i2mhjnvbRGgx2S68wg-11" style="rounded=0;orthogonalLoop=1;jettySize=auto;html=1;entryX=0;entryY=0;entryDx=0;entryDy=0;dashed=1;" parent="1" source="YSwagOfg2J_Akl-VQgVr-38" target="k9i2mhjnvbRGgx2S68wg-10" edge="1">
          <mxGeometry relative="1" as="geometry" />
        </mxCell>
        <mxCell id="k9i2mhjnvbRGgx2S68wg-12" value="Extend" style="edgeLabel;html=1;align=center;verticalAlign=middle;resizable=0;points=[];" parent="k9i2mhjnvbRGgx2S68wg-11" vertex="1" connectable="0">
          <mxGeometry x="-0.11" y="-2" relative="1" as="geometry">
            <mxPoint as="offset" />
          </mxGeometry>
        </mxCell>
        <mxCell id="k9i2mhjnvbRGgx2S68wg-13" style="edgeStyle=orthogonalEdgeStyle;rounded=0;orthogonalLoop=1;jettySize=auto;html=1;entryX=0.5;entryY=0;entryDx=0;entryDy=0;dashed=1;" parent="1" source="YSwagOfg2J_Akl-VQgVr-38" target="k9i2mhjnvbRGgx2S68wg-9" edge="1">
          <mxGeometry relative="1" as="geometry" />
        </mxCell>
        <mxCell id="k9i2mhjnvbRGgx2S68wg-14" value="Extend" style="edgeLabel;html=1;align=center;verticalAlign=middle;resizable=0;points=[];" parent="k9i2mhjnvbRGgx2S68wg-13" vertex="1" connectable="0">
          <mxGeometry x="-0.1" relative="1" as="geometry">
            <mxPoint as="offset" />
          </mxGeometry>
        </mxCell>
        <mxCell id="YSwagOfg2J_Akl-VQgVr-38" value="&lt;font style=&quot;font-size: 18px;&quot;&gt;Espace personnel&lt;/font&gt;" style="ellipse;whiteSpace=wrap;html=1;fillColor=#FF0303;" parent="1" vertex="1">
          <mxGeometry x="1160" y="790" width="120" height="80" as="geometry" />
        </mxCell>
        <mxCell id="YSwagOfg2J_Akl-VQgVr-39" value="&lt;span style=&quot;color: rgb(0, 0, 0); font-family: Helvetica; font-size: 11px; font-style: normal; font-variant-ligatures: normal; font-variant-caps: normal; font-weight: 400; letter-spacing: normal; orphans: 2; text-align: center; text-indent: 0px; text-transform: none; widows: 2; word-spacing: 0px; -webkit-text-stroke-width: 0px; white-space: nowrap; background-color: rgb(255, 255, 255); text-decoration-thickness: initial; text-decoration-style: initial; text-decoration-color: initial; display: inline !important; float: none;&quot;&gt;Included&lt;/span&gt;" style="endArrow=none;dashed=1;html=1;rounded=0;entryX=0;entryY=0.5;entryDx=0;entryDy=0;exitX=1;exitY=0.5;exitDx=0;exitDy=0;startArrow=classic;startFill=1;" parent="1" source="YSwagOfg2J_Akl-VQgVr-38" target="YSwagOfg2J_Akl-VQgVr-21" edge="1">
          <mxGeometry width="50" height="50" relative="1" as="geometry">
            <mxPoint x="1390" y="590" as="sourcePoint" />
            <mxPoint x="1490" y="335" as="targetPoint" />
          </mxGeometry>
        </mxCell>
        <mxCell id="YSwagOfg2J_Akl-VQgVr-40" value="&lt;font style=&quot;font-size: 18px;&quot;&gt;Panier&lt;/font&gt;" style="ellipse;whiteSpace=wrap;html=1;fillColor=#FF0303;" parent="1" vertex="1">
          <mxGeometry x="1241" y="670" width="120" height="80" as="geometry" />
        </mxCell>
        <mxCell id="YSwagOfg2J_Akl-VQgVr-41" value="&lt;span style=&quot;color: rgb(0, 0, 0); font-family: Helvetica; font-size: 11px; font-style: normal; font-variant-ligatures: normal; font-variant-caps: normal; font-weight: 400; letter-spacing: normal; orphans: 2; text-align: center; text-indent: 0px; text-transform: none; widows: 2; word-spacing: 0px; -webkit-text-stroke-width: 0px; white-space: nowrap; background-color: rgb(255, 255, 255); text-decoration-thickness: initial; text-decoration-style: initial; text-decoration-color: initial; display: inline !important; float: none;&quot;&gt;Included&lt;/span&gt;" style="endArrow=none;dashed=1;html=1;rounded=0;entryX=0;entryY=0.5;entryDx=0;entryDy=0;exitX=1;exitY=0.5;exitDx=0;exitDy=0;startArrow=classic;startFill=1;" parent="1" source="YSwagOfg2J_Akl-VQgVr-40" target="YSwagOfg2J_Akl-VQgVr-21" edge="1">
          <mxGeometry width="50" height="50" relative="1" as="geometry">
            <mxPoint x="1390" y="475" as="sourcePoint" />
            <mxPoint x="1490" y="470" as="targetPoint" />
          </mxGeometry>
        </mxCell>
        <mxCell id="YSwagOfg2J_Akl-VQgVr-42" value="&lt;span style=&quot;font-size: 18px;&quot;&gt;Valider commande&lt;/span&gt;" style="ellipse;whiteSpace=wrap;html=1;fillColor=#FF0303;" parent="1" vertex="1">
          <mxGeometry x="1241" y="520" width="120" height="80" as="geometry" />
        </mxCell>
        <mxCell id="YSwagOfg2J_Akl-VQgVr-43" style="rounded=0;orthogonalLoop=1;jettySize=auto;html=1;startArrow=classic;startFill=1;exitX=0.5;exitY=1;exitDx=0;exitDy=0;dashed=1;endArrow=none;endFill=0;" parent="1" source="YSwagOfg2J_Akl-VQgVr-42" target="YSwagOfg2J_Akl-VQgVr-40" edge="1">
          <mxGeometry relative="1" as="geometry" />
        </mxCell>
        <mxCell id="YSwagOfg2J_Akl-VQgVr-44" value="Extend" style="edgeLabel;html=1;align=center;verticalAlign=middle;resizable=0;points=[];" parent="YSwagOfg2J_Akl-VQgVr-43" vertex="1" connectable="0">
          <mxGeometry x="0.0506" y="2" relative="1" as="geometry">
            <mxPoint as="offset" />
          </mxGeometry>
        </mxCell>
        <mxCell id="YSwagOfg2J_Akl-VQgVr-45" value="&lt;font style=&quot;font-size: 18px;&quot;&gt;Vue détaillée des jeux&lt;/font&gt;" style="ellipse;whiteSpace=wrap;html=1;fillColor=#08FF29;" parent="1" vertex="1">
          <mxGeometry x="1140" y="180" width="130" height="90" as="geometry" />
        </mxCell>
        <mxCell id="lTZd8a4oboJ739eP-BJT-6" style="rounded=0;orthogonalLoop=1;jettySize=auto;html=1;entryX=0;entryY=0;entryDx=0;entryDy=0;dashed=1;" edge="1" parent="1" source="YSwagOfg2J_Akl-VQgVr-46" target="lTZd8a4oboJ739eP-BJT-1">
          <mxGeometry relative="1" as="geometry" />
        </mxCell>
        <mxCell id="lTZd8a4oboJ739eP-BJT-7" value="Extend" style="edgeLabel;html=1;align=center;verticalAlign=middle;resizable=0;points=[];" vertex="1" connectable="0" parent="lTZd8a4oboJ739eP-BJT-6">
          <mxGeometry x="-0.0059" y="2" relative="1" as="geometry">
            <mxPoint as="offset" />
          </mxGeometry>
        </mxCell>
        <mxCell id="YSwagOfg2J_Akl-VQgVr-46" value="&lt;font style=&quot;font-size: 18px;&quot;&gt;Vue global des jeux&lt;/font&gt;" style="ellipse;whiteSpace=wrap;html=1;fillColor=#08FF29;" parent="1" vertex="1">
          <mxGeometry x="1320" y="290.67" width="120" height="80" as="geometry" />
        </mxCell>
        <mxCell id="k9i2mhjnvbRGgx2S68wg-3" style="rounded=0;orthogonalLoop=1;jettySize=auto;html=1;dashed=1;exitX=1;exitY=0.5;exitDx=0;exitDy=0;" parent="1" source="YSwagOfg2J_Akl-VQgVr-47" target="YSwagOfg2J_Akl-VQgVr-51" edge="1">
          <mxGeometry relative="1" as="geometry" />
        </mxCell>
        <mxCell id="k9i2mhjnvbRGgx2S68wg-4" value="Extend" style="edgeLabel;html=1;align=center;verticalAlign=middle;resizable=0;points=[];" parent="k9i2mhjnvbRGgx2S68wg-3" vertex="1" connectable="0">
          <mxGeometry x="-0.0003" y="2" relative="1" as="geometry">
            <mxPoint as="offset" />
          </mxGeometry>
        </mxCell>
        <mxCell id="k9i2mhjnvbRGgx2S68wg-5" style="rounded=0;orthogonalLoop=1;jettySize=auto;html=1;entryX=0.5;entryY=0;entryDx=0;entryDy=0;dashed=1;" parent="1" source="YSwagOfg2J_Akl-VQgVr-47" target="YSwagOfg2J_Akl-VQgVr-50" edge="1">
          <mxGeometry relative="1" as="geometry" />
        </mxCell>
        <mxCell id="k9i2mhjnvbRGgx2S68wg-6" value="Extend" style="edgeLabel;html=1;align=center;verticalAlign=middle;resizable=0;points=[];" parent="k9i2mhjnvbRGgx2S68wg-5" vertex="1" connectable="0">
          <mxGeometry x="-0.0057" y="1" relative="1" as="geometry">
            <mxPoint as="offset" />
          </mxGeometry>
        </mxCell>
        <mxCell id="YSwagOfg2J_Akl-VQgVr-47" value="&lt;font style=&quot;font-size: 18px;&quot;&gt;Accueil&lt;/font&gt;" style="ellipse;whiteSpace=wrap;html=1;fillColor=#08FF29;" parent="1" vertex="1">
          <mxGeometry x="1624" y="160" width="120" height="80" as="geometry" />
        </mxCell>
        <mxCell id="YSwagOfg2J_Akl-VQgVr-48" value="&lt;font style=&quot;font-size: 18px;&quot;&gt;Créer un compte&lt;/font&gt;" style="ellipse;whiteSpace=wrap;html=1;fillColor=#08FF29;" parent="1" vertex="1">
          <mxGeometry x="1440" y="170" width="120" height="80" as="geometry" />
        </mxCell>
        <mxCell id="YSwagOfg2J_Akl-VQgVr-49" value="GameStore" style="text;strokeColor=none;fillColor=none;html=1;fontSize=24;fontStyle=1;verticalAlign=middle;align=center;" parent="1" vertex="1">
          <mxGeometry x="1840" y="160" width="170" height="40" as="geometry" />
        </mxCell>
        <mxCell id="lTZd8a4oboJ739eP-BJT-2" style="rounded=0;orthogonalLoop=1;jettySize=auto;html=1;entryX=1;entryY=0;entryDx=0;entryDy=0;dashed=1;" edge="1" parent="1" source="YSwagOfg2J_Akl-VQgVr-50" target="lTZd8a4oboJ739eP-BJT-1">
          <mxGeometry relative="1" as="geometry" />
        </mxCell>
        <mxCell id="lTZd8a4oboJ739eP-BJT-4" value="Extend" style="edgeLabel;html=1;align=center;verticalAlign=middle;resizable=0;points=[];" vertex="1" connectable="0" parent="lTZd8a4oboJ739eP-BJT-2">
          <mxGeometry x="-0.1096" relative="1" as="geometry">
            <mxPoint as="offset" />
          </mxGeometry>
        </mxCell>
        <mxCell id="YSwagOfg2J_Akl-VQgVr-50" value="&lt;font style=&quot;font-size: 18px;&quot;&gt;Jeux en promotion&lt;/font&gt;" style="ellipse;whiteSpace=wrap;html=1;fillColor=#08FF29;" parent="1" vertex="1">
          <mxGeometry x="1660" y="270" width="120" height="80" as="geometry" />
        </mxCell>
        <mxCell id="lTZd8a4oboJ739eP-BJT-3" style="rounded=0;orthogonalLoop=1;jettySize=auto;html=1;entryX=1;entryY=0.5;entryDx=0;entryDy=0;dashed=1;" edge="1" parent="1" source="YSwagOfg2J_Akl-VQgVr-51" target="lTZd8a4oboJ739eP-BJT-1">
          <mxGeometry relative="1" as="geometry" />
        </mxCell>
        <mxCell id="lTZd8a4oboJ739eP-BJT-5" value="Extend" style="edgeLabel;html=1;align=center;verticalAlign=middle;resizable=0;points=[];" vertex="1" connectable="0" parent="lTZd8a4oboJ739eP-BJT-3">
          <mxGeometry x="-0.2266" y="1" relative="1" as="geometry">
            <mxPoint as="offset" />
          </mxGeometry>
        </mxCell>
        <mxCell id="YSwagOfg2J_Akl-VQgVr-51" value="&lt;font style=&quot;font-size: 18px;&quot;&gt;Derniers jeux arrivés&lt;/font&gt;" style="ellipse;whiteSpace=wrap;html=1;fillColor=#08FF29;" parent="1" vertex="1">
          <mxGeometry x="1870" y="330" width="120" height="80" as="geometry" />
        </mxCell>
        <mxCell id="k9i2mhjnvbRGgx2S68wg-7" value="&lt;font style=&quot;font-size: 18px;&quot;&gt;Voir les autres magasins&lt;/font&gt;" style="ellipse;whiteSpace=wrap;html=1;fillColor=#D49CFF;" parent="1" vertex="1">
          <mxGeometry x="1870" y="673.33" width="140" height="93.33" as="geometry" />
        </mxCell>
        <mxCell id="k9i2mhjnvbRGgx2S68wg-9" value="&lt;font style=&quot;font-size: 18px;&quot;&gt;Voir historique d&#39;achats&lt;/font&gt;" style="ellipse;whiteSpace=wrap;html=1;fillColor=#FF0303;" parent="1" vertex="1">
          <mxGeometry x="1150" y="943.33" width="140" height="93.33" as="geometry" />
        </mxCell>
        <mxCell id="k9i2mhjnvbRGgx2S68wg-10" value="&lt;font style=&quot;font-size: 18px;&quot;&gt;Réinitiliser mot de passe&lt;/font&gt;" style="ellipse;whiteSpace=wrap;html=1;fillColor=#FF0303;" parent="1" vertex="1">
          <mxGeometry x="1320" y="873.33" width="140" height="93.33" as="geometry" />
        </mxCell>
        <mxCell id="k9i2mhjnvbRGgx2S68wg-16" style="edgeStyle=orthogonalEdgeStyle;rounded=0;orthogonalLoop=1;jettySize=auto;html=1;entryX=1;entryY=0.3333333333333333;entryDx=0;entryDy=0;entryPerimeter=0;" parent="1" source="YSwagOfg2J_Akl-VQgVr-16" target="YSwagOfg2J_Akl-VQgVr-20" edge="1">
          <mxGeometry relative="1" as="geometry">
            <Array as="points">
              <mxPoint x="2126" y="1280" />
            </Array>
          </mxGeometry>
        </mxCell>
        <mxCell id="k9i2mhjnvbRGgx2S68wg-19" style="edgeStyle=orthogonalEdgeStyle;rounded=0;orthogonalLoop=1;jettySize=auto;html=1;entryX=0;entryY=0.3333333333333333;entryDx=0;entryDy=0;entryPerimeter=0;" parent="1" source="YSwagOfg2J_Akl-VQgVr-10" target="YSwagOfg2J_Akl-VQgVr-6" edge="1">
          <mxGeometry relative="1" as="geometry">
            <Array as="points">
              <mxPoint x="1075" y="70" />
            </Array>
          </mxGeometry>
        </mxCell>
        <mxCell id="lTZd8a4oboJ739eP-BJT-1" value="&lt;span style=&quot;font-size: 18px;&quot;&gt;Filtrer les jeux&lt;/span&gt;" style="ellipse;whiteSpace=wrap;html=1;fillColor=#08FF29;" vertex="1" parent="1">
          <mxGeometry x="1520" y="370.67" width="148" height="98.67" as="geometry" />
        </mxCell>
      </root>
    </mxGraphModel>
  </diagram>
</mxfile>
